<svg width="80" height="24" viewBox="0 0 80 24" fill="none" xmlns="http://www.w3.org/2000/svg">
    <g clip-path="url(#clip0_170_547)">
        <path d="M3.19423 2.82743V7.00488H11.2689V9.83231H3.19423V13.8722H12.298V16.6996H0V0H12.298V2.82743H3.19423Z" fill="white"/>
        <path d="M29.6905 23.7046H0V20.8721H29.6905V23.7046Z" fill="#FF5959"/>
        <path d="M29.3492 16.6996L18.3757 6.77563V16.6996H15.1815V0H15.5228L26.4963 10.1074V0H29.6905V16.6996H29.3492Z" fill="white"/>
        <path d="M45.4324 9.83231H40.664V23.7045H37.4698V9.83231H32.6759V7.00488H45.4324V9.83231Z" fill="white"/>
        <path d="M55.0202 24C53.9401 24 52.9569 23.8319 52.0756 23.4956C51.1942 23.1594 50.4402 22.6907 49.8187 22.0794C49.1972 21.4731 48.7132 20.7345 48.3719 19.8684C48.0306 19.0023 47.8574 18.0344 47.8574 16.9696V7.00488H51.0516V16.9747C51.0516 17.8102 51.1891 18.5031 51.4642 19.0533C51.7393 19.5984 52.0756 20.0365 52.478 20.3524C52.8805 20.6733 53.3135 20.8924 53.7771 21.0146C54.2407 21.1369 54.6534 21.198 55.0202 21.198C55.387 21.198 55.7996 21.1369 56.2632 21.0146C56.7268 20.8924 57.1598 20.6733 57.5623 20.3524C57.9648 20.0314 58.3061 19.5984 58.5761 19.0533C58.8512 18.5082 58.9887 17.8153 58.9887 16.9747V7.00488H62.183V16.9747C62.183 18.0395 62.0149 19.0074 61.6786 19.8735C61.3424 20.7395 60.8635 21.4782 60.242 22.0845C59.6205 22.6907 58.8665 23.1645 57.9851 23.5007C57.1038 23.837 56.1155 24.0051 55.0202 24.0051V24Z" fill="white"/>
        <path d="M68.3676 18.391V23.7096H65.1734V7.00488H72.7591C73.6149 7.00488 74.3944 7.14753 75.1025 7.42772C75.8107 7.70792 76.4169 8.10529 76.9213 8.61473C77.4256 9.12418 77.8179 9.73042 78.0981 10.4385C78.3783 11.1467 78.5209 11.9159 78.5209 12.7565C78.5209 13.3781 78.4394 13.9843 78.2713 14.5702C78.1032 15.156 77.8739 15.6858 77.5733 16.1545C77.2779 16.6283 76.9111 17.0308 76.478 17.3772C76.045 17.7185 75.5661 17.958 75.0516 18.0955L79.2087 23.7096H75.398L71.5313 18.391H68.3676ZM68.3676 15.6094H72.0051C72.6725 15.6094 73.2227 15.5279 73.6557 15.3598C74.0887 15.1917 74.4301 14.9726 74.6797 14.6975C74.9293 14.4224 75.1025 14.1167 75.1891 13.7754C75.2757 13.4341 75.3267 13.0877 75.3267 12.7361C75.3267 12.3235 75.2605 11.9465 75.1331 11.595C75.0057 11.2435 74.8071 10.9429 74.5421 10.6831C74.2772 10.4233 73.9359 10.2195 73.5181 10.0667C73.1004 9.91382 72.596 9.8374 72.0051 9.8374H68.3676V15.6094Z" fill="white"/>
    </g>
    <defs>
        <clipPath id="clip0_170_547">
            <rect width="79.2087" height="24" fill="white"/>
        </clipPath>
    </defs>
</svg>
