<svg width="40" height="51" viewBox="0 0 40 51" fill="none" xmlns="http://www.w3.org/2000/svg">
<path fill-rule="evenodd" clip-rule="evenodd" d="M19.9999 0.906067C30.5202 0.906067 39.5886 9.08068 39.5886 20.4948C39.5886 23.7327 38.3109 27.4485 36.0041 31.6096C34.5254 34.2767 32.6496 37.0737 30.4677 39.9461C28.5323 42.494 26.4634 44.9622 24.3946 47.2601C23.6701 48.0647 22.9967 48.7914 22.3911 49.4284L21.6132 50.2341C20.7243 51.1301 19.2755 51.1301 18.3865 50.2341L17.142 48.934L15.6052 47.2601C13.5364 44.9622 11.4675 42.494 9.53208 39.9461C7.35012 37.0737 5.47435 34.2767 3.9957 31.6096C1.68883 27.4485 0.411133 23.7327 0.411133 20.4948C0.411133 9.08068 9.47958 0.906067 19.9999 0.906067ZM19.9999 5.45152C11.8908 5.45152 4.95659 11.7023 4.95659 20.4948C4.95659 22.8109 6.00445 25.8583 7.9711 29.4056C9.33346 31.863 11.092 34.4852 13.1517 37.1966C15.0041 39.6353 16.9937 42.0089 18.9833 44.2188L19.9988 45.3314L21.0165 44.2188C23.0061 42.0089 24.9956 39.6353 26.8481 37.1966C28.9078 34.4852 30.6663 31.863 32.0287 29.4056C33.9953 25.8583 35.0432 22.8109 35.0432 20.4948C35.0432 11.7023 28.1089 5.45152 19.9999 5.45152ZM20.0004 15.1918C22.9593 15.1918 25.3576 17.59 25.3576 20.5489C25.3576 23.5079 22.9593 25.9061 20.0004 25.9061C17.0415 25.9061 14.6433 23.5079 14.6433 20.5489C14.6433 17.59 17.0415 15.1918 20.0004 15.1918Z" fill="#FF5959"/>
</svg>
