<svg width="19" height="44" viewBox="0 0 19 44" fill="none" xmlns="http://www.w3.org/2000/svg">
<path fill-rule="evenodd" clip-rule="evenodd" d="M5.46875 3.90771C5.46875 6.0637 7.21528 7.8125 9.375 7.8125C11.5318 7.8125 13.2812 6.06369 13.2812 3.90771C13.2812 1.75173 11.5318 0 9.375 0C7.21528 0 5.46875 1.75173 5.46875 3.90771ZM16.1404 11.8671L18.7184 24.3328C18.8774 25.0538 18.422 25.7673 17.701 25.9264C16.9798 26.0855 16.2663 25.63 16.1072 24.909L14.2704 18.045H14.1243L14.0625 28.125V41.8749C14.0625 42.9106 13.2231 43.75 12.1874 43.75C11.1519 43.75 10.3125 42.9106 10.3125 41.8749L10.014 28.3237C10.0067 28.2179 9.93292 28.125 9.83431 28.125H8.92889C8.83295 28.125 8.76448 28.2162 8.75418 28.3184L8.43756 41.8749C8.43756 42.9106 7.59795 43.75 6.56245 43.75C5.52695 43.75 4.68752 42.9106 4.68752 41.8749V28.125L4.62572 18.045H4.47943L2.64284 24.909C2.48377 25.63 1.77023 26.0855 1.04906 25.9264C0.328085 25.7673 -0.12739 25.0538 0.0316833 24.3328L2.60966 11.8671C2.90968 10.4158 4.1878 9.375 5.66981 9.375H13.08C14.5621 9.375 15.8402 10.4158 16.1404 11.8671Z" fill="#181C56"/>
</svg>
