<svg width="80" height="24" viewBox="0 0 80 24" fill="none" xmlns="http://www.w3.org/2000/svg">
<g id="Logo/Positive" clip-path="url(#clip0_52_985)">
<path id="Vector" d="M3.19423 2.82743V7.00488H11.2689V9.83231H3.19423V13.8722H12.298V16.6996H0V0H12.298V2.82743H3.19423Z" fill="#181C56"/>
<path id="Vector_2" d="M29.6905 23.7045H0V20.872H29.6905V23.7045Z" fill="#FF5959"/>
<path id="Vector_3" d="M29.3493 16.6996L18.3759 6.77563V16.6996H15.1816V0H15.523L26.4964 10.1074V0H29.6907V16.6996H29.3493Z" fill="#181C56"/>
<path id="Vector_4" d="M45.4323 9.83231H40.6639V23.7045H37.4697V9.83231H32.6758V7.00488H45.4323V9.83231Z" fill="#181C56"/>
<path id="Vector_5" d="M55.0202 24C53.9402 24 52.957 23.8319 52.0756 23.4956C51.1943 23.1594 50.4403 22.6907 49.8188 22.0794C49.1973 21.4731 48.7133 20.7345 48.372 19.8684C48.0306 19.0023 47.8574 18.0344 47.8574 16.9696V7.00488H51.0516V16.9747C51.0516 17.8102 51.1892 18.5031 51.4643 19.0533C51.7394 19.5984 52.0756 20.0365 52.4781 20.3524C52.8806 20.6733 53.3136 20.8924 53.7772 21.0146C54.2408 21.1369 54.6534 21.198 55.0202 21.198C55.387 21.198 55.7997 21.1369 56.2633 21.0146C56.7269 20.8924 57.1599 20.6733 57.5624 20.3524C57.9648 20.0314 58.3062 19.5984 58.5762 19.0533C58.8513 18.5082 58.9888 17.8153 58.9888 16.9747V7.00488H62.183V16.9747C62.183 18.0395 62.0149 19.0074 61.6787 19.8735C61.3425 20.7395 60.8636 21.4782 60.2421 22.0845C59.6205 22.6907 58.8665 23.1645 57.9852 23.5007C57.1039 23.837 56.1155 24.0051 55.0202 24.0051V24Z" fill="#181C56"/>
<path id="Vector_6" d="M68.3676 18.391V23.7096H65.1733V7.00488H72.759C73.6149 7.00488 74.3943 7.14753 75.1024 7.42772C75.8106 7.70792 76.4168 8.10529 76.9212 8.61473C77.4255 9.12418 77.8178 9.73042 78.098 10.4385C78.3782 11.1467 78.5208 11.9159 78.5208 12.7565C78.5208 13.3781 78.4393 13.9843 78.2712 14.5702C78.1031 15.156 77.8738 15.6858 77.5733 16.1545C77.2778 16.6283 76.911 17.0308 76.4779 17.3772C76.0449 17.7185 75.566 17.958 75.0515 18.0955L79.2086 23.7096H75.3979L71.5312 18.391H68.3676ZM68.3676 15.6094H72.005C72.6724 15.6094 73.2226 15.5279 73.6556 15.3598C74.0886 15.1917 74.43 14.9726 74.6796 14.6975C74.9292 14.4224 75.1024 14.1167 75.189 13.7754C75.2757 13.4341 75.3266 13.0877 75.3266 12.7361C75.3266 12.3235 75.2604 11.9465 75.133 11.595C75.0056 11.2435 74.807 10.9429 74.5421 10.6831C74.2771 10.4233 73.9358 10.2195 73.5181 10.0667C73.1003 9.91382 72.596 9.8374 72.005 9.8374H68.3676V15.6094Z" fill="#181C56"/>
</g>
<defs>
<clipPath id="clip0_52_985">
<rect width="79.2087" height="24" fill="white"/>
</clipPath>
</defs>
</svg>
