<svg width="726" height="139" viewBox="0 0 726 139" fill="none" xmlns="http://www.w3.org/2000/svg">
<path d="M409.131 79.4919V88.4519H383.133V79.4919H409.131Z" fill="#FF5959"/>
<path d="M475.057 66.0519L467.773 72.5479C464.411 68.8519 457.015 65.6039 450.852 65.6039C445.361 65.6039 439.198 67.6199 439.198 72.2119C439.198 76.9159 445.809 78.2599 453.878 79.4919C466.54 81.3959 476.962 84.7559 476.962 95.8439C476.962 106.82 466.652 112.756 453.878 112.756C439.534 112.756 430.457 105.14 427.432 102.228L435.276 95.5079C441.215 101.108 447.938 103.908 454.326 103.908C460.825 103.908 466.54 101.668 466.54 96.6279C466.54 91.3639 460.489 89.7959 451.973 88.4519C440.206 86.6599 428.664 84.0839 428.664 73.2199C428.664 62.9159 437.965 56.7559 450.74 56.7559C459.929 56.7559 469.678 60.0039 475.057 66.0519Z" fill="#FF5959"/>
<path d="M498.894 103.348V138.18H488.361V58.2119H498.67V66.4999H499.006C502.48 60.8999 509.428 56.7559 518.169 56.7559C533.969 56.7559 544.727 68.9639 544.727 84.6439C544.727 100.212 534.305 112.756 517.944 112.756C510.436 112.756 503.152 109.284 499.23 103.348H498.894ZM533.857 84.6439C533.857 74.6759 527.694 65.4919 516.151 65.4919C505.394 65.4919 498.222 74.5639 498.222 84.7559C498.222 94.9479 505.394 103.908 516.151 103.908C527.694 103.908 533.857 94.6119 533.857 84.6439Z" fill="#FF5959"/>
<path d="M557.254 111.3V58.2119H567.787V111.3H557.254ZM555.685 37.2679C555.685 33.3479 558.599 30.2119 562.521 30.2119C566.555 30.2119 569.58 33.3479 569.58 37.2679C569.58 41.1879 566.555 44.0999 562.521 44.0999C558.599 44.0999 555.685 41.1879 555.685 37.2679Z" fill="#FF5959"/>
<path d="M594.549 26.6279V111.3H584.015V26.6279H594.549Z" fill="#FF5959"/>
<path d="M621.417 26.6279V111.3H610.883V26.6279H621.417Z" fill="#FF5959"/>
<path d="M686.722 87.7799H644.363C645.596 98.1959 652.543 103.908 662.517 103.908C671.145 103.908 676.86 98.8679 679.55 95.6199L686.273 101.22C682.015 107.156 672.714 112.756 661.284 112.756C645.932 112.756 634.165 101.78 634.165 86.2119C634.165 70.0839 645.82 56.7559 662.068 56.7559C678.541 56.7559 686.946 70.3079 686.946 82.1799C686.946 84.1959 686.834 85.9879 686.722 87.7799ZM661.508 65.4919C652.431 65.4919 645.932 71.5399 644.475 80.1639H677.309C677.309 72.0999 670.249 65.4919 661.508 65.4919Z" fill="#FF5959"/>
<path d="M725.412 102.564V111.3H719.473C707.034 111.3 700.871 108.388 700.871 93.3799V66.8359H692.242V58.2119H700.871V43.7639H711.292V58.2119H725.188V66.8359H711.292V91.5879C711.292 102.228 716.223 102.564 721.602 102.564H725.412Z" fill="#FF5959"/>
<path fill-rule="evenodd" clip-rule="evenodd" d="M0 0V77.154H56.7724V64.085H14.7464V45.43H52.0308V32.3575H14.7464V13.069H56.7724V0H0Z" fill="white"/>
<path fill-rule="evenodd" clip-rule="evenodd" d="M0 109.508H137.056V96.4321H0V109.508Z" fill="#FF5959"/>
<path fill-rule="evenodd" clip-rule="evenodd" d="M122.31 0V46.6935L71.6448 0H70.0654V77.154H84.8118V31.304L135.477 77.154H137.056V0H122.31Z" fill="white"/>
<path fill-rule="evenodd" clip-rule="evenodd" d="M209.734 45.423H187.725V109.508H172.978V45.423H150.857V32.354H209.734V45.423Z" fill="white"/>
<path fill-rule="evenodd" clip-rule="evenodd" d="M253.992 110.879C249.006 110.879 244.476 110.105 240.406 108.56C236.332 107.015 232.856 104.836 229.977 102.025C227.098 99.2153 224.869 95.8063 223.289 91.8009C221.71 87.7955 220.919 83.3344 220.919 78.4148V32.3541H235.665V78.4148C235.665 82.2809 236.298 85.4771 237.561 88.0062C238.825 90.536 240.387 92.5387 242.248 94.0143C244.108 95.4906 246.11 96.5098 248.252 97.0705C250.393 97.6347 252.307 97.914 253.992 97.914C255.678 97.914 257.591 97.6347 259.733 97.0705C261.875 96.5098 263.876 95.4906 265.737 94.0143C267.596 92.5387 269.16 90.536 270.424 88.0062C271.688 85.4771 272.319 82.2809 272.319 78.4148V32.3541H287.065V78.4148C287.065 83.3344 286.292 87.7955 284.749 91.8009C283.203 95.8063 280.991 99.2153 278.112 102.025C275.232 104.836 271.757 107.015 267.685 108.56C263.612 110.105 259.048 110.879 253.992 110.879ZM315.614 72.0909H332.413C335.49 72.0909 338.028 71.7052 340.023 70.9317C342.018 70.1589 343.593 69.1397 344.747 67.8748C345.903 66.6099 346.69 65.1875 347.109 63.6062C347.529 62.0249 347.74 60.4275 347.74 58.8105C347.74 56.9128 347.442 55.1579 346.848 53.5402C346.252 51.9246 345.342 50.5204 344.117 49.3248C342.893 48.1306 341.318 47.1814 339.393 46.4779C337.467 45.7765 335.141 45.4244 332.413 45.4244H315.614V72.0909ZM315.614 84.9499V109.508H300.869V32.354H335.897C339.837 32.354 343.441 33.005 346.713 34.3049C349.984 35.6055 352.78 37.4318 355.1 39.7859C357.421 42.1407 359.232 44.9505 360.534 48.2181C361.834 51.485 362.485 55.0515 362.485 58.9162C362.485 61.7974 362.098 64.5911 361.325 67.2945C360.552 70.0014 359.479 72.443 358.106 74.62C356.734 76.7998 355.047 78.6786 353.043 80.2592C351.038 81.8412 348.839 82.9472 346.448 83.5793L365.645 109.508H348.056L330.207 84.9499H315.614Z" fill="white"/>
</svg>
